<mxfile host="app.diagrams.net" agent="Mozilla/5.0 (Windows NT 10.0; Win64; x64) AppleWebKit/537.36 (KHTML, like Gecko) Chrome/138.0.0.0 Safari/537.36" version="28.0.7">
  <diagram name="Page-1" id="4MSs-3ZKwbqKHJ0EgK01">
    <mxGraphModel dx="1026" dy="507" grid="1" gridSize="10" guides="1" tooltips="1" connect="1" arrows="1" fold="1" page="1" pageScale="1" pageWidth="850" pageHeight="1100" math="0" shadow="0">
      <root>
        <mxCell id="0" />
        <mxCell id="1" parent="0" />
        <mxCell id="ao6vC2taqPcK_guc-HCO-12" style="edgeStyle=orthogonalEdgeStyle;rounded=0;orthogonalLoop=1;jettySize=auto;html=1;exitX=0.5;exitY=1;exitDx=0;exitDy=0;" edge="1" parent="1">
          <mxGeometry relative="1" as="geometry">
            <mxPoint x="425" y="430" as="sourcePoint" />
            <mxPoint x="425" y="430" as="targetPoint" />
          </mxGeometry>
        </mxCell>
        <mxCell id="ao6vC2taqPcK_guc-HCO-31" value="&lt;p style=&quot;margin:0px;margin-top:4px;text-align:center;&quot;&gt;&lt;b&gt;Account&amp;nbsp;&lt;/b&gt;&lt;/p&gt;&lt;hr size=&quot;1&quot; style=&quot;border-style:solid;&quot;&gt;&lt;p style=&quot;margin:0px;margin-left:4px;&quot;&gt;- Account number&lt;/p&gt;&lt;p style=&quot;margin:0px;margin-left:4px;&quot;&gt;- balance&amp;nbsp;&lt;/p&gt;&lt;hr size=&quot;1&quot; style=&quot;border-style:solid;&quot;&gt;&lt;p style=&quot;margin:0px;margin-left:4px;&quot;&gt;+ deposit&amp;nbsp;&lt;/p&gt;&lt;p style=&quot;margin:0px;margin-left:4px;&quot;&gt;+ withdraw&amp;nbsp;&lt;/p&gt;&lt;p style=&quot;margin:0px;margin-left:4px;&quot;&gt;+ check balance&amp;nbsp;&lt;/p&gt;" style="verticalAlign=top;align=left;overflow=fill;html=1;whiteSpace=wrap;" vertex="1" parent="1">
          <mxGeometry x="570" y="230" width="160" height="130" as="geometry" />
        </mxCell>
        <mxCell id="ao6vC2taqPcK_guc-HCO-32" value="&lt;p style=&quot;margin:0px;margin-top:4px;text-align:center;&quot;&gt;&lt;b&gt;Branch&amp;nbsp;&lt;/b&gt;&lt;/p&gt;&lt;hr size=&quot;1&quot; style=&quot;border-style:solid;&quot;&gt;&lt;p style=&quot;margin:0px;margin-left:4px;&quot;&gt;- branch Code&amp;nbsp;&lt;/p&gt;&lt;p style=&quot;margin:0px;margin-left:4px;&quot;&gt;- city&amp;nbsp;&lt;/p&gt;&lt;hr size=&quot;1&quot; style=&quot;border-style:solid;&quot;&gt;&lt;p style=&quot;margin:0px;margin-left:4px;&quot;&gt;+ add account&amp;nbsp;&lt;/p&gt;&lt;p style=&quot;margin:0px;margin-left:4px;&quot;&gt;+ remove account&amp;nbsp;&lt;/p&gt;" style="verticalAlign=top;align=left;overflow=fill;html=1;whiteSpace=wrap;" vertex="1" parent="1">
          <mxGeometry x="345" y="230" width="160" height="130" as="geometry" />
        </mxCell>
        <object label="&lt;p style=&quot;margin:0px;margin-top:4px;text-align:center;&quot;&gt;&lt;b&gt;Bank&amp;nbsp;&lt;/b&gt;&lt;/p&gt;&lt;hr size=&quot;1&quot; style=&quot;border-style:solid;&quot;&gt;&lt;p style=&quot;margin:0px;margin-left:4px;&quot;&gt;- name, location&amp;nbsp;&lt;/p&gt;&lt;p style=&quot;margin:0px;margin-left:4px;&quot;&gt;- code&lt;/p&gt;&lt;hr size=&quot;1&quot; style=&quot;border-style:solid;&quot;&gt;&lt;p style=&quot;margin:0px;margin-left:4px;&quot;&gt;+ add branch&amp;nbsp;&lt;/p&gt;&lt;p style=&quot;margin:0px;margin-left:4px;&quot;&gt;+remove branch&amp;nbsp;&lt;/p&gt;&lt;p style=&quot;margin:0px;margin-left:4px;&quot;&gt;+get branch()&lt;/p&gt;" id="ao6vC2taqPcK_guc-HCO-33">
          <mxCell style="verticalAlign=top;align=left;overflow=fill;html=1;whiteSpace=wrap;" vertex="1" parent="1">
            <mxGeometry x="100" y="230" width="160" height="130" as="geometry" />
          </mxCell>
        </object>
        <mxCell id="ao6vC2taqPcK_guc-HCO-34" value="&lt;p style=&quot;margin:0px;margin-top:4px;text-align:center;&quot;&gt;&lt;b&gt;Current account&amp;nbsp;&lt;/b&gt;&lt;/p&gt;&lt;hr size=&quot;1&quot; style=&quot;border-style:solid;&quot;&gt;&lt;p style=&quot;margin:0px;margin-left:4px;&quot;&gt;- int_rate&amp;nbsp;&lt;/p&gt;&lt;p style=&quot;margin:0px;margin-left:4px;&quot;&gt;- opening date&lt;/p&gt;&lt;hr size=&quot;1&quot; style=&quot;border-style:solid;&quot;&gt;&lt;p style=&quot;margin:0px;margin-left:4px;&quot;&gt;+ add customer&lt;/p&gt;&lt;p style=&quot;margin:0px;margin-left:4px;&quot;&gt;+ remove customers&amp;nbsp;&lt;/p&gt;&lt;p style=&quot;margin:0px;margin-left:4px;&quot;&gt;&lt;br&gt;&lt;/p&gt;" style="verticalAlign=top;align=left;overflow=fill;html=1;whiteSpace=wrap;" vertex="1" parent="1">
          <mxGeometry x="550" y="448" width="160" height="112" as="geometry" />
        </mxCell>
        <mxCell id="ao6vC2taqPcK_guc-HCO-35" value="&lt;p style=&quot;margin:0px;margin-top:4px;text-align:center;&quot;&gt;&lt;b&gt;saving account&lt;/b&gt;&lt;/p&gt;&lt;hr size=&quot;1&quot; style=&quot;border-style:solid;&quot;&gt;&lt;p style=&quot;margin:0px;margin-left:4px;&quot;&gt;- min balance&amp;nbsp;&lt;/p&gt;&lt;p style=&quot;margin:0px;margin-left:4px;&quot;&gt;- opening date&amp;nbsp;&lt;/p&gt;&lt;hr size=&quot;1&quot; style=&quot;border-style:solid;&quot;&gt;&lt;p style=&quot;margin:0px;margin-left:4px;&quot;&gt;+ add customers\&lt;/p&gt;&lt;p style=&quot;margin:0px;margin-left:4px;&quot;&gt;+remove customers ()&lt;/p&gt;&lt;p style=&quot;margin:0px;margin-left:4px;&quot;&gt;&lt;br&gt;&lt;/p&gt;" style="verticalAlign=top;align=left;overflow=fill;html=1;whiteSpace=wrap;" vertex="1" parent="1">
          <mxGeometry x="350" y="440" width="160" height="110" as="geometry" />
        </mxCell>
        <mxCell id="ao6vC2taqPcK_guc-HCO-44" value="" style="edgeStyle=orthogonalEdgeStyle;rounded=0;orthogonalLoop=1;jettySize=auto;html=1;" edge="1" parent="1" source="ao6vC2taqPcK_guc-HCO-36" target="ao6vC2taqPcK_guc-HCO-42">
          <mxGeometry relative="1" as="geometry" />
        </mxCell>
        <mxCell id="ao6vC2taqPcK_guc-HCO-36" value="&lt;p style=&quot;margin:0px;margin-top:4px;text-align:center;&quot;&gt;&lt;b&gt;Loan&amp;nbsp;&lt;/b&gt;&lt;/p&gt;&lt;hr size=&quot;1&quot; style=&quot;border-style:solid;&quot;&gt;&lt;p style=&quot;margin:0px;margin-left:4px;&quot;&gt;- loan number&amp;nbsp;&lt;/p&gt;&lt;p style=&quot;margin:0px;margin-left:4px;&quot;&gt;- Amount&lt;/p&gt;&lt;hr size=&quot;1&quot; style=&quot;border-style:solid;&quot;&gt;&lt;p style=&quot;margin:0px;margin-left:4px;&quot;&gt;+ get customers&lt;/p&gt;&lt;p style=&quot;margin:0px;margin-left:4px;&quot;&gt;+get emi()&lt;/p&gt;&lt;p style=&quot;margin:0px;margin-left:4px;&quot;&gt;&lt;br&gt;&lt;/p&gt;" style="verticalAlign=top;align=left;overflow=fill;html=1;whiteSpace=wrap;" vertex="1" parent="1">
          <mxGeometry x="170" y="440" width="160" height="110" as="geometry" />
        </mxCell>
        <mxCell id="ao6vC2taqPcK_guc-HCO-47" value="" style="edgeStyle=orthogonalEdgeStyle;rounded=0;orthogonalLoop=1;jettySize=auto;html=1;" edge="1" parent="1" source="ao6vC2taqPcK_guc-HCO-37" target="ao6vC2taqPcK_guc-HCO-35">
          <mxGeometry relative="1" as="geometry" />
        </mxCell>
        <mxCell id="ao6vC2taqPcK_guc-HCO-50" value="" style="edgeStyle=orthogonalEdgeStyle;rounded=0;orthogonalLoop=1;jettySize=auto;html=1;entryX=0.5;entryY=1;entryDx=0;entryDy=0;" edge="1" parent="1" source="ao6vC2taqPcK_guc-HCO-37" target="ao6vC2taqPcK_guc-HCO-34">
          <mxGeometry relative="1" as="geometry">
            <mxPoint x="610" y="675" as="targetPoint" />
          </mxGeometry>
        </mxCell>
        <mxCell id="ao6vC2taqPcK_guc-HCO-52" value="" style="edgeStyle=orthogonalEdgeStyle;rounded=0;orthogonalLoop=1;jettySize=auto;html=1;" edge="1" parent="1" source="ao6vC2taqPcK_guc-HCO-37" target="ao6vC2taqPcK_guc-HCO-36">
          <mxGeometry relative="1" as="geometry">
            <mxPoint x="240" y="675" as="targetPoint" />
          </mxGeometry>
        </mxCell>
        <mxCell id="ao6vC2taqPcK_guc-HCO-37" value="&lt;p style=&quot;margin:0px;margin-top:6px;text-align:center;&quot;&gt;&lt;b&gt;Customer&amp;nbsp;&lt;/b&gt;&lt;/p&gt;&lt;hr size=&quot;1&quot; style=&quot;border-style:solid;&quot;&gt;&lt;p style=&quot;margin:0px;margin-left:8px;&quot;&gt;+ id&lt;br&gt;+ name&lt;/p&gt;&lt;p style=&quot;margin:0px;margin-left:8px;&quot;&gt;+ address&lt;/p&gt;&lt;p style=&quot;margin:0px;margin-left:8px;&quot;&gt;&lt;br&gt;&lt;/p&gt;" style="align=left;overflow=fill;html=1;dropTarget=0;whiteSpace=wrap;" vertex="1" parent="1">
          <mxGeometry x="350" y="630" width="180" height="90" as="geometry" />
        </mxCell>
        <mxCell id="ao6vC2taqPcK_guc-HCO-38" value="" style="shape=component;jettyWidth=8;jettyHeight=4;" vertex="1" parent="ao6vC2taqPcK_guc-HCO-37">
          <mxGeometry x="1" width="20" height="20" relative="1" as="geometry">
            <mxPoint x="-24" y="4" as="offset" />
          </mxGeometry>
        </mxCell>
        <mxCell id="ao6vC2taqPcK_guc-HCO-39" value="" style="endArrow=diamondThin;endFill=0;endSize=24;html=1;rounded=0;entryX=1;entryY=0.5;entryDx=0;entryDy=0;exitX=0;exitY=0.5;exitDx=0;exitDy=0;" edge="1" parent="1" source="ao6vC2taqPcK_guc-HCO-32" target="ao6vC2taqPcK_guc-HCO-33">
          <mxGeometry width="160" relative="1" as="geometry">
            <mxPoint x="470" y="500" as="sourcePoint" />
            <mxPoint x="630" y="500" as="targetPoint" />
          </mxGeometry>
        </mxCell>
        <mxCell id="ao6vC2taqPcK_guc-HCO-40" value="" style="endArrow=diamondThin;endFill=0;endSize=24;html=1;rounded=0;entryX=1;entryY=0.5;entryDx=0;entryDy=0;" edge="1" parent="1" target="ao6vC2taqPcK_guc-HCO-32">
          <mxGeometry width="160" relative="1" as="geometry">
            <mxPoint x="570" y="270" as="sourcePoint" />
            <mxPoint x="530" y="260" as="targetPoint" />
            <Array as="points">
              <mxPoint x="540" y="270" />
            </Array>
          </mxGeometry>
        </mxCell>
        <mxCell id="ao6vC2taqPcK_guc-HCO-41" value="" style="endArrow=open;endFill=1;endSize=12;html=1;rounded=0;entryX=0.5;entryY=1;entryDx=0;entryDy=0;exitX=0.5;exitY=0;exitDx=0;exitDy=0;" edge="1" parent="1" source="ao6vC2taqPcK_guc-HCO-34" target="ao6vC2taqPcK_guc-HCO-31">
          <mxGeometry width="160" relative="1" as="geometry">
            <mxPoint x="470" y="500" as="sourcePoint" />
            <mxPoint x="630" y="500" as="targetPoint" />
          </mxGeometry>
        </mxCell>
        <mxCell id="ao6vC2taqPcK_guc-HCO-42" value="" style="line;strokeWidth=1;fillColor=none;align=left;verticalAlign=middle;spacingTop=-1;spacingLeft=3;spacingRight=3;rotatable=0;labelPosition=right;points=[];portConstraint=eastwest;strokeColor=inherit;" vertex="1" parent="1">
          <mxGeometry x="240" y="390" width="390" height="8" as="geometry" />
        </mxCell>
        <mxCell id="ao6vC2taqPcK_guc-HCO-45" value="" style="line;strokeWidth=1;fillColor=none;align=left;verticalAlign=middle;spacingTop=-1;spacingLeft=3;spacingRight=3;rotatable=0;labelPosition=right;points=[];portConstraint=eastwest;strokeColor=inherit;" vertex="1" parent="1">
          <mxGeometry x="320" y="489" width="40" height="8" as="geometry" />
        </mxCell>
        <mxCell id="ao6vC2taqPcK_guc-HCO-46" value="" style="line;strokeWidth=1;fillColor=none;align=left;verticalAlign=middle;spacingTop=-1;spacingLeft=3;spacingRight=3;rotatable=0;labelPosition=right;points=[];portConstraint=eastwest;strokeColor=inherit;" vertex="1" parent="1">
          <mxGeometry x="505" y="489" width="40" height="8" as="geometry" />
        </mxCell>
      </root>
    </mxGraphModel>
  </diagram>
</mxfile>
